<?xml version="1.0" encoding="utf-8"?>
<svg fill="#000000" width="800px" height="800px" viewBox="0 0 24 24" xmlns="http://www.w3.org/2000/svg">
  <path d="M 22 19.5 C 22 18.948 21.552 18.5 21 18.5 L 12 18.5 C 11.23 18.5 10.749 19.333 11.134 20 C 11.313 20.309 11.643 20.5 12 20.5 L 21 20.5 C 21.552 20.5 22 20.052 22 19.5 Z" style="transform-origin: 16.499px 19.5px;"/>
  <path d="M 6 2 C 5.447715250169207 2 5 2.4477152501692068 5 3 L 5 18.586 L 3.707 17.293 C 3.153291680854636 16.75821061164061 2.2282974861145965 17.023374081976748 2.0420104496937066 17.77029424682311 C 1.958552475461019 18.104920021484002 2.053410386832333 18.458934565502176 2.2929999999999997 18.707 L 5.292999999999999 21.707 C 5.683727744980448 22.098716756 6.318272255019551 22.098716756 6.709 21.707 L 9.709 18.707 C 10.24378938836681 18.153291680861805 9.978625918033755 17.228297486127857 9.23170575318989 17.042010449696956 C 8.897079978530115 16.958552475459783 8.543065434501038 17.053410386835658 8.295 17.293 L 7 18.586 L 7 3 C 7 2.4477152501692068 6.552284749830793 2 6 2 Z"/>
  <path d="M 21 5.5 L 18 5.5 C 17.23 5.5 16.749 4.667 17.134 4 C 17.313 3.691 17.643 3.5 18 3.5 L 21 3.5 C 21.77 3.5 22.251 4.333 21.866 5 C 21.687 5.309 21.357 5.5 21 5.5 Z" style="transform-origin: 19.5px 4.5px;"/>
  <path d="M 21 10.5 L 16 10.5 C 15.23 10.5 14.749 9.667 15.134 9 C 15.313 8.691 15.643 8.5 16 8.5 L 21 8.5 C 21.77 8.5 22.251 9.333 21.866 10 C 21.687 10.309 21.357 10.5 21 10.5 Z" style="transform-origin: 18.5px 9.5px;"/>
  <path d="M 21 15.5 L 14 15.5 C 13.23 15.5 12.749 14.667 13.134 14 C 13.313 13.691 13.643 13.5 14 13.5 L 21 13.5 C 21.77 13.5 22.251 14.333 21.866 15 C 21.687 15.309 21.357 15.5 21 15.5 Z" style="transform-origin: 17.5px 14.5px;"/>
</svg>