<?xml version="1.0" encoding="utf-8"?>
<svg fill="#000000" width="800px" height="800px" viewBox="0 0 24 24" xmlns="http://www.w3.org/2000/svg">
  <path d="M 22 4.5 C 22 5.052 21.552 5.5 21 5.5 L 12 5.5 C 11.23 5.5 10.749 4.667 11.134 4 C 11.313 3.691 11.643 3.5 12 3.5 L 21 3.5 C 21.552 3.5 22 3.948 22 4.5 Z" style="transform-origin: 16.499px 4.5px;"/>
  <path d="M 6 2 C 5.447715250169207 2 5 2.4477152501692068 5 3 L 5 18.586 L 3.707 17.293 C 3.153291680854636 16.75821061164061 2.2282974861145965 17.023374081976748 2.0420104496937066 17.77029424682311 C 1.958552475461019 18.104920021484002 2.053410386832333 18.458934565502176 2.2929999999999997 18.707 L 5.292999999999999 21.707 C 5.683727744980448 22.098716756 6.318272255019551 22.098716756 6.709 21.707 L 9.709 18.707 C 10.24378938836681 18.153291680861805 9.978625918033755 17.228297486127857 9.23170575318989 17.042010449696956 C 8.897079978530115 16.958552475459783 8.543065434501038 17.053410386835658 8.295 17.293 L 7 18.586 L 7 3 C 7 2.4477152501692068 6.552284749830793 2 6 2 Z"/>
  <path d="M 21 18.5 L 18 18.5 C 17.23 18.5 16.749 19.333 17.134 20 C 17.313 20.309 17.643 20.5 18 20.5 L 21 20.5 C 21.77 20.5 22.251 19.667 21.866 19 C 21.687 18.691 21.357 18.5 21 18.5 Z" style="transform-origin: 19.5px 19.5px;"/>
  <path d="M 21 13.5 L 16 13.5 C 15.23 13.5 14.749 14.333 15.134 15 C 15.313 15.309 15.643 15.5 16 15.5 L 21 15.5 C 21.77 15.5 22.251 14.667 21.866 14 C 21.687 13.691 21.357 13.5 21 13.5 Z" style="transform-origin: 18.5px 14.5px;"/>
  <path d="M 21 8.5 L 14 8.5 C 13.23 8.5 12.749 9.333 13.134 10 C 13.313 10.309 13.643 10.5 14 10.5 L 21 10.5 C 21.77 10.5 22.251 9.667 21.866 9 C 21.687 8.691 21.357 8.5 21 8.5 Z" style="transform-origin: 17.5px 9.5px;"/>
</svg>